<?xml version="1.0" encoding="iso-8859-1"?>
<!-- Generator: Adobe Illustrator 18.1.1, SVG Export Plug-In . SVG Version: 6.00 Build 0)  -->
<svg version="1.1" id="Capa_1" xmlns="http://www.w3.org/2000/svg" xmlns:xlink="http://www.w3.org/1999/xlink" x="0px" y="0px"
	 viewBox="0 0 451.19 451.19" style="enable-background:new 0 0 451.19 451.19;" xml:space="preserve">
<g>
	<path d="M161.591,277.965h-13.113c-37.948,0-68.819-30.871-68.819-68.819v-74.939c0-37.941,30.871-68.812,68.819-68.812h13.113
		c37.945,0,68.816,30.871,68.816,68.812v74.939C230.406,247.094,199.536,277.965,161.591,277.965z M148.477,86.88
		c-26.101,0-47.334,21.233-47.334,47.327v74.939c0,26.101,21.233,47.334,47.334,47.334h13.113c26.097,0,47.331-21.233,47.331-47.334
		v-74.939c0-26.094-21.233-47.327-47.331-47.327H148.477z"/>
	<g>
		<path d="M155.034,385.795H10.752c-5.934,0-10.742-4.812-10.742-10.742v-25.695c-0.941-28.052,69.83-49.523,117.769-60.804v-19.911
			c0-5.931,4.808-10.742,10.742-10.742s10.742,4.812,10.742,10.742v28.465c0,5.029-3.49,9.386-8.396,10.484
			C76.06,319.872,24.918,339.489,21.428,349.582l0.038,14.729h133.568c5.934,0,10.742,4.812,10.742,10.742
			S160.968,385.795,155.034,385.795z"/>
		<path d="M299.313,385.795H155.034c-5.934,0-10.742-4.812-10.742-10.742s4.808-10.742,10.742-10.742H288.57v-14.953
			c-3.427-9.875-54.566-29.5-109.369-41.767c-5.791-1.294-9.431-7.043-8.137-12.834c1.294-5.784,7.032-9.407,12.83-8.134
			c47.547,10.645,127.158,32.997,126.154,63.091l0.007,25.339C310.055,380.984,305.247,385.795,299.313,385.795z"/>
	</g>
	<path d="M440.448,113.897H300.782c-5.934,0-10.742-4.812-10.742-10.742c0-5.931,4.808-10.742,10.742-10.742h139.666
		c5.934,0,10.742,4.812,10.742,10.742C451.19,109.085,446.382,113.897,440.448,113.897z"/>
	<path d="M440.448,182.422H300.782c-5.934,0-10.742-4.812-10.742-10.742s4.808-10.742,10.742-10.742h139.666
		c5.934,0,10.742,4.812,10.742,10.742S446.382,182.422,440.448,182.422z"/>
	<path d="M440.448,250.948H300.782c-5.934,0-10.742-4.812-10.742-10.742s4.808-10.742,10.742-10.742h139.666
		c5.934,0,10.742,4.812,10.742,10.742S446.382,250.948,440.448,250.948z"/>
</g>
<g>
</g>
<g>
</g>
<g>
</g>
<g>
</g>
<g>
</g>
<g>
</g>
<g>
</g>
<g>
</g>
<g>
</g>
<g>
</g>
<g>
</g>
<g>
</g>
<g>
</g>
<g>
</g>
<g>
</g>
</svg>
