<svg width="28" height="22" viewBox="0 0 28 22" fill="none" xmlns="http://www.w3.org/2000/svg">
<path d="M12.9884 17.4561C11.8614 17.4561 10.9525 18.4077 10.9525 19.5903C10.9525 20.7655 11.8614 21.72 12.9884 21.72C14.1106 21.72 15.0248 20.7655 15.0248 19.5903C15.0248 18.4077 14.1106 17.4561 12.9884 17.4561Z" fill="#2A343A"/>
<path d="M21.2859 17.4561C20.1609 17.4561 19.2502 18.4077 19.2502 19.5903C19.2502 20.7655 20.1608 21.72 21.2859 21.72C22.4081 21.72 23.3209 20.7655 23.3209 19.5903C23.3209 18.4077 22.4081 17.4561 21.2859 17.4561Z" fill="#2A343A"/>
<path d="M22.9474 7.9624H11.3235L11.7875 9.56347H22.4871L22.9474 7.9624Z" fill="#2F3640"/>
<path d="M21.5633 12.7604L22.0248 11.1623H12.2511L12.7142 12.7604H21.5633Z" fill="#2A343A"/>
<path d="M10.185 4.00646L10.8581 6.36568H24.9665L22.6663 14.351H11.6141L7.467 0H0V2.34134H5.79265L9.9492 16.7088H24.3239L28 4.00646H10.185Z" fill="#2A343A"/>
</svg>
