<svg width="284" height="62" viewBox="0 0 284 62" fill="none" xmlns="http://www.w3.org/2000/svg">
<path d="M77.883 26.2246L71.7546 26.5037L69.0356 47.9367L63.9783 48.167L66.6974 26.734L60.6567 27.0091L61.2159 22.6726L78.4422 21.888L77.883 26.2246ZM86.426 37.3259L83.9854 40.1469L83.0793 47.2971L78.0396 47.5266L81.3002 21.7578L86.3399 21.5283L84.9385 32.4842L86.8523 29.6872L92.3805 21.2531L98.825 20.9596L90.0932 32.8477L95.4064 46.7356L89.6643 46.9971L86.426 37.3259ZM97.3513 46.647L100.612 20.8782L106.917 20.6087C108.78 20.5707 110.371 20.9851 111.689 21.8518C113.019 22.718 113.996 23.958 114.621 25.5719C115.258 27.1852 115.493 29.0103 115.328 31.0473L114.937 34.8132C114.578 38.2784 113.454 41.0277 111.564 43.0611C109.686 45.094 107.255 46.1842 104.27 46.3319L97.3513 46.647ZM105.11 24.9845L102.933 42.0993L104.182 42.0776C105.926 41.9982 107.255 41.4332 108.169 40.3827C109.083 39.3205 109.652 37.6581 109.878 35.3955L110.286 31.2242C110.389 29.8705 110.408 28.8842 110.345 28.2653C110.233 27.0973 109.895 26.2446 109.331 25.7072C108.767 25.1698 107.957 24.9076 106.902 24.9205L105.11 24.9845ZM126.636 36.4095L118.278 36.7902L118.826 32.6124L127.185 32.2317L126.636 36.4095ZM148.527 23.007L142.399 23.2861L139.68 44.7191L134.623 44.9495L137.342 23.5164L131.301 23.7916L131.86 19.455L149.086 18.6704L148.527 23.007ZM157.495 34.5465L154.931 34.6632L153.741 44.0787L148.701 44.3082L151.962 18.5394L159.689 18.2051C161.975 18.1714 163.757 18.794 165.036 20.0731C166.314 21.3523 166.912 23.1492 166.83 25.4639C166.696 28.9775 165.215 31.485 162.386 32.9864L165.423 43.2651L165.436 43.546L160.028 43.7924L157.495 34.5465ZM155.473 30.3275L158.126 30.2418C159.342 30.163 160.28 29.6393 160.94 28.6707C161.599 27.6905 161.888 26.4222 161.805 24.8657C161.688 23.3343 160.978 22.5513 159.674 22.5169L156.46 22.6457L155.473 30.3275ZM180.558 37.6136L173.763 37.9231L171.771 43.2575L166.292 43.507L177.314 17.3847L181.933 17.1744L186.451 42.5889L181.236 42.8264L180.558 37.6136ZM175.411 33.5369L180.011 33.3274L178.879 24.2992L175.411 33.5369ZM188.817 42.4811L192.078 16.7123L198.383 16.4428C200.246 16.4048 201.837 16.8192 203.155 17.6859C204.485 18.5521 205.462 19.7921 206.087 21.4059C206.724 23.0193 206.96 24.8444 206.794 26.8814L206.403 30.6473C206.044 34.1125 204.92 36.8618 203.03 38.8952C201.152 40.928 198.721 42.0183 195.736 42.166L188.817 42.4811ZM196.576 20.8185L194.399 37.9334L195.648 37.9117C197.392 37.8322 198.721 37.2673 199.635 36.2168C200.549 35.1546 201.118 33.4922 201.344 31.2296L201.752 27.0583C201.855 25.7045 201.874 24.7182 201.811 24.0994C201.699 22.9314 201.361 22.0787 200.797 21.5413C200.233 21.0039 199.423 20.7417 198.368 20.7545L196.576 20.8185ZM222.762 29.8494L214.965 30.2045L214.097 37.0362L223.334 36.6155L222.774 40.9345L208.515 41.5839L211.776 15.8151L226.017 15.1665L225.458 19.5031L216.274 19.9214L215.496 26.01L223.31 25.6541L222.762 29.8494Z" fill="#FF4757"/>
<line x1="63.0102" y1="1.50003" x2="283.005" y2="2.99411" stroke="#2F3640" stroke-width="3"/>
<line x1="0.993467" y1="60.4581" x2="220.991" y2="59.5" stroke="#2F3640" stroke-width="3"/>
<line x1="52.5431" y1="13.265" x2="45.4765" y2="52.6358" stroke="#2F3640" stroke-width="3"/>
<path d="M240.576 16L232 55.0698" stroke="#2F3640" stroke-width="3"/>
</svg>
