<svg width="18" height="28" viewBox="0 0 18 28" fill="none" xmlns="http://www.w3.org/2000/svg">
<path d="M17.0731 24.7475L17.1013 24.3893C17.1636 23.551 16.6661 22.4347 15.9944 21.9082L13.511 19.9539C12.8371 19.4247 11.6352 19.2296 10.845 19.5333L9.40371 20.0874C6.13263 17.5276 4.45384 13.4598 5.0065 9.43172L6.44791 8.87762C7.23807 8.57386 7.97116 7.63599 8.08349 6.80463L8.49655 3.73686C8.60829 2.90686 8.17288 1.76555 7.53067 1.20148L7.25565 0.958689C6.612 0.393995 5.43939 0.18077 4.64928 0.484502L2.49266 1.31468C2.10809 1.46135 1.61071 2.14003 1.60953 2.14279C-0.467293 6.82511 -0.526476 12.1715 1.45255 16.9666C3.42674 21.75 7.26227 25.5827 12.0868 27.6109C12.1119 27.6217 12.9778 27.7968 13.3624 27.6501L15.5184 26.8213C16.3085 26.5176 17.008 25.5847 17.0731 24.7475Z" fill="#44BD32"/>
</svg>
